<?xml version="1.0" encoding="UTF-8"?>
<svg version="1.1" xmlns="http://www.w3.org/2000/svg" width="5063" height="1188">
<path d="M0 0 C63.69 0 127.38 0 193 0 C193 22.44 193 44.88 193 68 C200.68917725 67.99476318 208.37835449 67.98952637 216.30053711 67.98413086 C240.87476728 67.96809672 265.44899731 67.95696435 290.02323132 67.94893467 C293.83734629 67.94768389 297.65146123 67.94638958 301.46557617 67.94506836 C302.60460693 67.94467489 302.60460693 67.94467489 303.76664842 67.94427348 C316.07824169 67.93991663 328.38983032 67.93202901 340.70142084 67.9228472 C353.3247939 67.91351107 365.94816452 67.90794448 378.57154089 67.90591151 C386.36714149 67.90453619 394.16272896 67.90018516 401.95832551 67.89208353 C407.92586162 67.88619589 413.89338632 67.88554093 419.86092567 67.88689232 C422.31643124 67.88661579 424.77193727 67.88460805 427.22743988 67.88079453 C430.56395311 67.87586422 433.90040883 67.87699925 437.23692322 67.87974548 C438.22231124 67.87683264 439.20769927 67.8739198 440.22294754 67.87091869 C441.55310783 67.87390526 441.55310783 67.87390526 442.91014004 67.87695217 C443.68135203 67.87657245 444.45256402 67.87619273 445.24714607 67.8758015 C447 68 447 68 448 69 C448.09425595 71.14743549 448.11742648 73.29801026 448.11352539 75.44750977 C448.11367142 76.12065216 448.11381744 76.79379456 448.1139679 77.48733521 C448.11326878 79.72205784 448.10547652 81.9566981 448.09765625 84.19140625 C448.09579206 85.73697362 448.09436816 87.28254157 448.09336853 88.82810974 C448.0895434 92.90357077 448.07971317 96.97899637 448.06866455 101.05444336 C448.05665566 105.94027728 448.05204817 110.82612302 448.04621124 115.71196747 C448.0365014 123.14133631 448.01734484 130.57062737 448 138 C468.46 138 488.92 138 510 138 C510 161.1 510 184.2 510 208 C531.12 208 552.24 208 574 208 C574 484.21 574 760.42 574 1045 C553.87 1045 533.74 1045 513 1045 C513 1045.99 513 1046.98 513 1048 C512.01 1048 511.02 1048 510 1048 C510 1070.11 510 1092.22 510 1115 C490.53 1115 471.06 1115 451 1115 C450.67 1115.99 450.34 1116.98 450 1118 C449.34 1118 448.68 1118 448 1118 C448 1140.11 448 1162.22 448 1185 C425.23 1185 402.46 1185 379 1185 C379 863.58 379 542.16 379 211 C318.61 211 258.22 211 196 211 C196 211.66 196 212.32 196 213 C195.01 213 194.02 213 193 213 C193 302.76 193 392.52 193 485 C193.99 485 194.98 485 196 485 C195.67 486.65 195.34 488.3 195 490 C194.34 490 193.68 490 193 490 C193 719.35 193 948.7 193 1185 C129.31 1185 65.62 1185 0 1185 C0 863.58 0 542.16 0 211 C-60.06 211 -120.12 211 -182 211 C-182 211.66 -182 212.32 -182 213 C-182.99 213 -183.98 213 -185 213 C-185 533.76 -185 854.52 -185 1185 C-207.11 1185 -229.22 1185 -252 1185 C-252 1184.01 -252 1183.02 -252 1182 C-252.99 1181.67 -253.98 1181.34 -255 1181 C-255 1159.22 -255 1137.44 -255 1115 C-275.46 1115 -295.92 1115 -317 1115 C-317 1091.9 -317 1068.8 -317 1045 C-338.12 1045 -359.24 1045 -381 1045 C-381 768.79 -381 492.58 -381 208 C-359.88 208 -338.76 208 -317 208 C-317 184.9 -317 161.8 -317 138 C-296.54 138 -276.08 138 -255 138 C-255.01160156 133.03066406 -255.02320312 128.06132812 -255.03515625 122.94140625 C-255.04026314 119.80143099 -255.04507692 116.66146083 -255.04882812 113.52148438 C-255.05481606 108.53278547 -255.06191503 103.54410483 -255.07543945 98.55541992 C-255.08627008 94.53542314 -255.09227721 90.51544595 -255.09487724 86.49543571 C-255.09673118 84.95837025 -255.10035119 83.42130591 -255.10573006 81.88424873 C-255.11294284 79.73864513 -255.11399084 77.59312345 -255.11352539 75.44750977 C-255.115746 74.22395279 -255.11796661 73.00039581 -255.12025452 71.73976135 C-255 69 -255 69 -254 68 C-252.63950734 67.90360227 -251.27404339 67.87628063 -249.91014004 67.87695217 C-249.02336651 67.87496112 -248.13659299 67.87297007 -247.22294754 67.87091869 C-246.23755951 67.87383153 -245.25217149 67.87674437 -244.23692322 67.87974548 C-243.19884649 67.87889106 -242.16076977 67.87803663 -241.09123617 67.87715632 C-237.58416313 67.87549841 -234.07713706 67.88102795 -230.57006836 67.88647461 C-228.06748964 67.88675644 -225.56491083 67.88659883 -223.06233215 67.8860321 C-217.65971711 67.88580378 -212.25711742 67.88865524 -206.85450554 67.89426994 C-199.04315202 67.90238268 -191.23180434 67.90499993 -183.42044706 67.90625793 C-170.74831231 67.90844881 -158.07618399 67.91510986 -145.40405273 67.92456055 C-133.09122754 67.93373374 -120.77840409 67.94081503 -108.46557617 67.94506836 C-107.70714202 67.94533108 -106.94870787 67.94559381 -106.16729086 67.94586449 C-102.36260741 67.94716949 -98.55792394 67.94843321 -94.75324047 67.94967639 C-63.16882129 67.96005012 -31.58441405 67.97848901 0 68 C0 45.56 0 23.12 0 0 Z " fill="#000000" transform="translate(4249,0)"/>
<path d="M0 0 C11.17875 -0.020625 22.3575 -0.04125 33.875 -0.0625 C37.40687012 -0.071604 40.93874023 -0.08070801 44.57763672 -0.09008789 C48.88500977 -0.09460449 48.88500977 -0.09460449 50.90042114 -0.09544373 C52.31033646 -0.09698097 53.72025045 -0.10050142 55.13015747 -0.10557556 C57.26371552 -0.11287131 59.39719311 -0.1139068 61.53076172 -0.11352539 C62.73433319 -0.115746 63.93790466 -0.11796661 65.177948 -0.12025452 C68 0 68 0 70 1 C70 46.87 70 92.74 70 140 C90.13 140 110.26 140 131 140 C131 186.2 131 232.4 131 280 C152.45 280 173.9 280 196 280 C196 324.88 196 369.76 196 416 C216.13 416 236.26 416 257 416 C258 417 258 417 258.12304783 419.29386234 C258.12212604 420.31797435 258.12120424 421.34208635 258.12025452 422.39723206 C258.12231651 424.15364517 258.12231651 424.15364517 258.12442017 425.94554138 C258.12082489 427.24169876 258.11722961 428.53785614 258.11352539 429.87329102 C258.11324352 431.24287921 258.11340125 432.61246756 258.1139679 433.98205566 C258.11425588 437.71122948 258.10835909 441.44037141 258.10139394 445.16953778 C258.09516047 449.06264413 258.09455661 452.95575113 258.09336853 456.84886169 C258.09025519 464.22598146 258.08204178 471.60308649 258.07201904 478.98019975 C258.06085797 487.37667543 258.05534747 495.77315179 258.05032361 504.16963303 C258.03985916 521.44643202 258.02151366 538.7232107 258 556 C277.47 556 296.94 556 317 556 C317 372.52 317 189.04 317 0 C339.44 0 361.88 0 385 0 C386 1 386 1 386.12025452 3.73976135 C386.1169236 5.57509682 386.1169236 5.57509682 386.11352539 7.44750977 C386.11367142 8.12065216 386.11381744 8.79379456 386.1139679 9.48733521 C386.11326878 11.72205784 386.10547652 13.9566981 386.09765625 16.19140625 C386.09579206 17.73697362 386.09436816 19.28254157 386.09336853 20.82810974 C386.0895434 24.90357077 386.07971317 28.97899637 386.06866455 33.05444336 C386.05665566 37.94027728 386.05204817 42.82612302 386.04621124 47.71196747 C386.0365014 55.14133631 386.01734484 62.57062737 386 70 C406.46 70 426.92 70 448 70 C448 93.1 448 116.2 448 140 C469.12 140 490.24 140 512 140 C512 416.21 512 692.42 512 977 C491.87 977 471.74 977 451 977 C451 977.99 451 978.98 451 980 C450.01 980 449.02 980 448 980 C448 1002.11 448 1024.22 448 1047 C428.53 1047 409.06 1047 389 1047 C388.67 1047.99 388.34 1048.98 388 1050 C387.34 1050 386.68 1050 386 1050 C386 1072.11 386 1094.22 386 1117 C363.23 1117 340.46 1117 317 1117 C317 1070.8 317 1024.6 317 977 C296.54 977 276.08 977 255 977 C255 976.01 255 975.02 255 974 C254.01 973.67 253.02 973.34 252 973 C252 971.35 252 969.7 252 968 C252.99 967.67 253.98 967.34 255 967 C255 964.03 255 961.06 255 958 C254.01 957.67 253.02 957.34 252 957 C252 948.76470588 252 948.76470588 254 945 C254.33 944.01 254.66 943.02 255 942 C254.01 941.67 253.02 941.34 252 941 C252 918.66666667 252 896.33333333 252 874 C252.99 873.67 253.98 873.34 255 873 C255 872.01 255 871.02 255 870 C254.34 870 253.68 870 253 870 C251.48285161 866.96570323 251.85636084 863.82398333 251.875 860.5 C251.87113281 859.81035156 251.86726563 859.12070312 251.86328125 858.41015625 C251.87333354 853.25333293 251.87333354 853.25333293 253 851 C252.67 850.34 252.34 849.68 252 849 C252 845.37 252 841.74 252 838 C231.54 838 211.08 838 190 838 C190 791.8 190 745.6 190 698 C169.87 698 149.74 698 129 698 C129 694.37 129 690.74 129 687 C128.01 686.67 127.02 686.34 126 686 C126.185625 685.4225 126.37125 684.845 126.5625 684.25 C127.04023546 681.79307475 126.75729364 680.35602466 126 678 C126.99 677.67 127.98 677.34 129 677 C129 672.38 129 667.76 129 663 C128.01 662.67 127.02 662.34 126 662 C126 639.66666667 126 617.33333333 126 595 C126.99 594.67 127.98 594.34 129 594 C129 592.02 129 590.04 129 588 C128.01 587.67 127.02 587.34 126 587 C126 579.74 126 572.48 126 565 C126.99 564.67 127.98 564.34 129 564 C129 563.01 129 562.02 129 561 C128.01 561 127.02 561 126 561 C126 560.34 126 559.68 126 559 C107.52 559 89.04 559 70 559 C70 743.14 70 927.28 70 1117 C46.9 1117 23.8 1117 0 1117 C0 1094.89 0 1072.78 0 1050 C-17.0232565 1050.07918552 -17.0232565 1050.07918552 -34.04638672 1050.18017578 C-36.17415162 1050.18601479 -38.30191874 1050.19111174 -40.4296875 1050.1953125 C-41.542229 1050.20554443 -42.65477051 1050.21577637 -43.80102539 1050.22631836 C-45.38427612 1050.22668091 -45.38427612 1050.22668091 -46.99951172 1050.22705078 C-47.91884491 1050.231492 -48.8381781 1050.23593323 -49.78536987 1050.24050903 C-52 1050 -52 1050 -54 1048 C-56.64 1047.67 -59.28 1047.34 -62 1047 C-62 1023.9 -62 1000.8 -62 977 C-83.12 977 -104.24 977 -126 977 C-126 700.79 -126 424.58 -126 140 C-104.88 140 -83.76 140 -62 140 C-62 116.9 -62 93.8 -62 70 C-41.54 70 -21.08 70 0 70 C0 46.9 0 23.8 0 0 Z " fill="#000000" transform="translate(2223,68)"/>
<path d="M0 0 C22.11 0 44.22 0 67 0 C67 137.61 67 275.22 67 417 C67.99 417.33 68.98 417.66 70 418 C69.67525544 418.57662042 69.35051087 419.15324085 69.01592556 419.74733461 C67.96066322 422.08722352 67.74863905 423.50256752 67.74519098 426.04264617 C67.73629897 427.2451495 67.73629897 427.2451495 67.72722733 428.47194582 C67.73087701 429.3486408 67.73452669 430.22533577 67.73828697 431.12859726 C67.73429091 432.06688328 67.73029485 433.00516931 67.72617769 433.97188824 C67.71514316 437.13965686 67.71841319 440.30725255 67.7215271 443.47503662 C67.71652766 445.75950547 67.71065291 448.04397254 67.70397437 450.32843709 C67.68811779 456.62447899 67.68474058 462.92047635 67.68332577 469.21653581 C67.68099328 475.30312678 67.66737141 481.38969777 67.6549259 487.47627475 C67.62978627 499.92959971 67.61393374 512.38292042 67.60334396 524.83626556 C67.59282602 537.16957263 67.57819881 549.50286349 67.55806351 561.83615875 C67.55681464 562.60253356 67.55556577 563.36890837 67.55427906 564.15850666 C67.54791545 568.05041576 67.54147824 571.94232474 67.53501268 575.83423367 C67.48932998 603.41242989 67.45289092 630.99063137 67.421875 658.56884766 C67.39171925 685.36345184 67.35738454 712.15804534 67.31738281 738.95263672 C67.31615181 739.77832353 67.31492081 740.60401035 67.3136525 741.45471798 C67.30128582 749.74647977 67.28883408 758.03824144 67.27632002 766.33000301 C67.25082856 783.22181199 67.22590489 800.1136218 67.20132446 817.00543213 C67.20019355 817.78211834 67.19906264 818.55880456 67.19789747 819.35902672 C67.16325835 843.16901534 67.13102619 866.97900637 67.10116577 890.78900146 C67.09989252 891.80314179 67.09989252 891.80314179 67.09859355 892.8377698 C67.06424522 920.22517807 67.03244266 947.61258942 67 975 C159.07 974.505 159.07 974.505 253 974 C253 929.12 253 884.24 253 838 C253.66 838 254.32 838 255 838 C255 837.01 255 836.02 255 835 C254.34 835 253.68 835 253 835 C252.95329533 817.33689561 252.91801868 799.67380723 252.89637566 782.01065445 C252.88605967 773.80949083 252.87199319 765.60836557 252.84912109 757.40722656 C252.82919708 750.25976274 252.81628591 743.1123267 252.81182301 735.96483588 C252.80921395 732.17971087 252.80307485 728.39466531 252.78853989 724.60956573 C252.77497157 721.04735655 252.77077583 717.48525961 252.77378464 713.92302704 C252.77297153 711.99147613 252.76220594 710.05993746 252.75115967 708.12841797 C252.753909 706.97859436 252.75665833 705.82877075 252.75949097 704.644104 C252.75672559 703.14526861 252.75672559 703.14526861 252.75390434 701.61615372 C253.00620334 698.93405459 253.62817783 697.29421131 255 695 C254.34 695 253.68 695 253 695 C253 650.12 253 605.24 253 559 C253.66 559 254.32 559 255 559 C254.67588229 558.44029983 254.35176458 557.88059965 254.01782513 557.30393887 C252.87477629 554.71654485 252.73748172 552.95552914 252.71479797 550.13697815 C252.7021865 549.15440946 252.68957502 548.17184076 252.67658138 547.15949726 C252.67098878 545.54442673 252.67098878 545.54442673 252.6652832 543.89672852 C252.65365678 542.75141505 252.64203035 541.60610159 252.63005161 540.42608166 C252.60011577 537.2488845 252.57918158 534.07177998 252.56246519 530.89449024 C252.54668899 528.17295501 252.52396992 525.45149536 252.50121689 522.73001087 C252.43947663 515.3385787 252.39228833 507.94711627 252.3517828 500.55553997 C252.32194912 495.12679094 252.2876538 489.6980857 252.25100708 484.26937866 C251.80363573 417.17466883 252.2686147 350.0910855 253 283 C253.66 283 254.32 283 255 283 C255 281.68 255 280.36 255 279 C254.34 279 253.68 279 253 279 C253 234.12 253 189.24 253 143 C253.66 143 254.32 143 255 143 C254.67523808 142.45507149 254.35047615 141.91014297 254.01587296 141.34870148 C252.79860289 138.53436924 252.74837402 136.48430093 252.74603271 133.42077637 C252.74039307 132.28514755 252.73475342 131.14951874 252.72894287 129.97947693 C252.73501556 128.1169503 252.73501556 128.1169503 252.74121094 126.21679688 C252.73595398 124.25046043 252.73595398 124.25046043 252.73059082 122.24440002 C252.72147503 118.65147007 252.72500771 115.058655 252.73134899 111.46572304 C252.73641318 107.70529496 252.73171637 103.94487671 252.72857666 100.18444824 C252.72493824 93.86952956 252.72973286 87.55465767 252.73925781 81.23974609 C252.75014214 73.93928958 252.74661647 66.63894477 252.735605 59.33849096 C252.72652859 53.07002478 252.72524858 46.80159222 252.73048234 40.53312159 C252.7336001 36.78943202 252.73401672 33.04579496 252.72740936 29.30210876 C252.72055868 25.12907293 252.73005444 20.95622964 252.74121094 16.78320312 C252.73716248 15.54151871 252.73311401 14.29983429 252.72894287 13.02052307 C252.73458252 11.88489426 252.74022217 10.74926544 252.74603271 9.57922363 C252.74716379 8.09924267 252.74716379 8.09924267 252.74831772 6.5893631 C253 4 253 4 255 0 C277.11 0 299.22 0 322 0 C322 23.1 322 46.2 322 70 C342.46 70 362.92 70 384 70 C384 93.1 384 116.2 384 140 C405.12 140 426.24 140 448 140 C448 416.21 448 692.42 448 977 C427.87 977.33 407.74 977.66 387 978 C386.67 978.66 386.34 979.32 386 980 C385.34 980 384.68 980 384 980 C384 1002.11 384 1024.22 384 1047 C364.53 1047 345.06 1047 325 1047 C325 1047.99 325 1048.98 325 1050 C324.01 1050 323.02 1050 322 1050 C322 1072.11 322 1094.22 322 1117 C215.74 1117 109.48 1117 0 1117 C0 1093.9 0 1070.8 0 1047 C-20.46 1047 -40.92 1047 -62 1047 C-62 1046.01 -62 1045.02 -62 1044 C-62.66 1044 -63.32 1044 -64 1044 C-64 1021.89 -64 999.78 -64 977 C-84.46 977 -104.92 977 -126 977 C-126 700.79 -126 424.58 -126 140 C-95.31 139.505 -95.31 139.505 -64 139 C-64.02320312 134.35421875 -64.04640625 129.7084375 -64.0703125 124.921875 C-64.08053213 121.97785899 -64.0901601 119.03386487 -64.09765625 116.08984375 C-64.10960966 111.41743424 -64.12374748 106.74510315 -64.15087891 102.07275391 C-64.17261699 98.305607 -64.18457066 94.5385442 -64.18975449 90.77133942 C-64.19344851 89.33443121 -64.20066203 87.89752759 -64.21146011 86.46065521 C-64.225987 84.44744866 -64.22681703 82.43415739 -64.22705078 80.42089844 C-64.231492 79.27506287 -64.23593323 78.12922729 -64.24050903 76.94866943 C-64 74 -64 74 -62 70 C-41.54 70 -21.08 70 0 70 C0 46.9 0 23.8 0 0 Z " fill="#000000" transform="translate(3299,68)"/>
<path d="M0 0 C126.72 0 253.44 0 384 0 C384 23.1 384 46.2 384 70 C404.46 70 424.92 70 446 70 C446 94.09 446 118.18 446 143 C321.92 143 197.84 143 70 143 C70 143.66 70 144.32 70 145 C69.01 145 68.02 145 67 145 C67 257.53 67 370.06 67 486 C150.49 486 233.98 486 320 486 C320 532.86 320 579.72 320 628 C237.5 628 155 628 70 628 C70 628.99 70 629.98 70 631 C69.01 631 68.02 631 67 631 C67 744.52 67 858.04 67 975 C192.07 975 317.14 975 446 975 C446 998.76 446 1022.52 446 1047 C426.2 1047 406.4 1047 386 1047 C386 1047.66 386 1048.32 386 1049 C385.34 1049 384.68 1049 384 1049 C384 1071.44 384 1093.88 384 1117 C257.28 1117 130.56 1117 0 1117 C0 1116.01 0 1115.02 0 1114 C-0.66 1114 -1.32 1114 -2 1114 C-2 1091.89 -2 1069.78 -2 1047 C-22.46 1047 -42.92 1047 -64 1047 C-64 1023.9 -64 1000.8 -64 977 C-85.45 977 -106.9 977 -129 977 C-129 861.83 -129 746.66 -129 628 C-149.13 628 -169.26 628 -190 628 C-190 581.14 -190 534.28 -190 486 C-169.87 486 -149.74 486 -129 486 C-129 371.82 -129 257.64 -129 140 C-107.55 140 -86.1 140 -64 140 C-64 116.9 -64 93.8 -64 70 C-43.54 70 -23.08 70 -2 70 C-2.02320313 65.28203125 -2.04640625 60.5640625 -2.0703125 55.703125 C-2.08053201 52.71353616 -2.09015997 49.72396887 -2.09765625 46.734375 C-2.1096101 41.98953781 -2.12374913 37.24477785 -2.15087891 32.5 C-2.17261545 28.67449853 -2.18457034 24.84907988 -2.18975449 21.02352142 C-2.19344879 19.56428473 -2.20066283 18.10505256 -2.21146011 16.64585114 C-2.225986 14.60136635 -2.22797751 12.55722343 -2.22705078 10.51269531 C-2.231492 9.34909485 -2.23593323 8.18549438 -2.24050903 6.9866333 C-2 4 -2 4 0 0 Z " fill="#000000" transform="translate(1592,68)"/>
<path d="M0 0 C48.77491375 -0.02258328 97.54982625 -0.04049711 146.32474419 -0.05106533 C152.07660356 -0.05231611 157.82846291 -0.05361043 163.58032227 -0.05493164 C164.72546541 -0.05519395 165.87060856 -0.05545626 167.05045301 -0.05572652 C185.6184098 -0.0600837 204.18636351 -0.06797151 222.75431847 -0.0771528 C241.79164201 -0.08648801 260.82896394 -0.09205533 279.86628968 -0.09408849 C291.62340937 -0.095464 303.38052036 -0.09981606 315.13763738 -0.10791647 C323.18826879 -0.1131823 331.23889566 -0.11480467 339.28952866 -0.11350138 C343.94169567 -0.11285774 348.59384741 -0.11387838 353.24601173 -0.11920547 C357.49772723 -0.12403877 361.74941706 -0.12433912 366.00113369 -0.12089889 C367.54622926 -0.12047313 369.09132638 -0.12176945 370.63641887 -0.12488318 C372.72281121 -0.12884615 374.80910862 -0.12676405 376.89549923 -0.12304783 C378.0585826 -0.12342755 379.22166597 -0.12380727 380.41999429 -0.1241985 C383 0 383 0 384 1 C384.09425595 3.14743549 384.11742648 5.29801026 384.11352539 7.44750977 C384.11367142 8.12065216 384.11381744 8.79379456 384.1139679 9.48733521 C384.11326878 11.72205784 384.10547652 13.9566981 384.09765625 16.19140625 C384.09579206 17.73697362 384.09436816 19.28254157 384.09336853 20.82810974 C384.0895434 24.90357077 384.07971317 28.97899637 384.06866455 33.05444336 C384.05665566 37.94027728 384.05204817 42.82612302 384.04621124 47.71196747 C384.0365014 55.14133631 384.01734484 62.57062737 384 70 C405.12 70 426.24 70 448 70 C448 94.09 448 118.18 448 143 C323.26 143 198.52 143 70 143 C70 143.66 70 144.32 70 145 C69.01 145 68.02 145 67 145 C67 256.87 67 368.74 67 484 C67.99 484 68.98 484 70 484 C70 484.66 70 485.32 70 486 C152.17 486 234.34 486 319 486 C319 532.86 319 579.72 319 628 C236.83 628 154.66 628 70 628 C70 628.99 70 629.98 70 631 C69.01 631 68.02 631 67 631 C67 744.52 67 858.04 67 975 C192.73 975 318.46 975 448 975 C448 998.76 448 1022.52 448 1047 C427.54 1047 407.08 1047 386 1047 C386 1047.99 386 1048.98 386 1050 C385.34 1050 384.68 1050 384 1050 C384 1072.11 384 1094.22 384 1117 C257.28 1117 130.56 1117 0 1117 C0 1093.9 0 1070.8 0 1047 C-21.45 1047 -42.9 1047 -65 1047 C-65 1023.9 -65 1000.8 -65 977 C-85.13 977 -105.26 977 -126 977 C-126 968.09 -126 959.18 -126 950 C-126.99 949.67 -127.98 949.34 -129 949 C-129 941.08 -129 933.16 -129 925 C-128.01 924.67 -127.02 924.34 -126 924 C-126 923.01 -126 922.02 -126 921 C-126.99 920.67 -127.98 920.34 -129 920 C-128.67 918.68 -128.34 917.36 -128 916 C-127.34 916 -126.68 916 -126 916 C-126 914.02 -126 912.04 -126 910 C-126.99 909.67 -127.98 909.34 -129 909 C-129 895.66666667 -129 882.33333333 -129 869 C-128.01 868.67 -127.02 868.34 -126 868 C-126 866.02 -126 864.04 -126 862 C-126.99 861.67 -127.98 861.34 -129 861 C-129 854.73 -129 848.46 -129 842 C-128.01 841.67 -127.02 841.34 -126 841 C-126 839.02 -126 837.04 -126 835 C-126.99 834.67 -127.98 834.34 -129 834 C-129 822.45 -129 810.9 -129 799 C-128.01 798.67 -127.02 798.34 -126 798 C-126.495 796.515 -126.495 796.515 -127 795 C-127.66 794.67 -128.32 794.34 -129 794 C-129 792.02 -129 790.04 -129 788 C-128.01 787.67 -127.02 787.34 -126 787 C-126 786.01 -126 785.02 -126 784 C-126.99 783.67 -127.98 783.34 -129 783 C-129 774.66666667 -129 766.33333333 -129 758 C-128.34 757.67 -127.68 757.34 -127 757 C-126.67 756.01 -126.34 755.02 -126 754 C-126.99 753.67 -127.98 753.34 -129 753 C-129 736 -129 719 -129 702 C-128.01 701.67 -127.02 701.34 -126 701 C-126 692.09 -126 683.18 -126 674 C-126.99 673.67 -127.98 673.34 -129 673 C-128.67 671.68 -128.34 670.36 -128 669 C-127.34 669 -126.68 669 -126 669 C-126 668.01 -126 667.02 -126 666 C-126.99 665.67 -127.98 665.34 -129 665 C-129 662.03 -129 659.06 -129 656 C-128.01 656 -127.02 656 -126 656 C-126 654.68 -126 653.36 -126 652 C-126.99 651.67 -127.98 651.34 -129 651 C-129 646.71 -129 642.42 -129 638 C-128.01 637.67 -127.02 637.34 -126 637 C-126.495 635.515 -126.495 635.515 -127 634 C-127.66 633.67 -128.32 633.34 -129 633 C-129 631.35 -129 629.7 -129 628 C-149.46 628 -169.92 628 -191 628 C-191 581.14 -191 534.28 -191 486 C-170.54 486 -150.08 486 -129 486 C-129 419.01 -129 352.02 -129 283 C-128.34 282.67 -127.68 282.34 -127 282 C-126.67 281.01 -126.34 280.02 -126 279 C-126.99 278.67 -127.98 278.34 -129 278 C-129 233.78 -129 189.56 -129 144 C-128.01 143.67 -127.02 143.34 -126 143 C-126 142.01 -126 141.02 -126 140 C-105.87 140 -85.74 140 -65 140 C-65 116.9 -65 93.8 -65 70 C-43.55 70 -22.1 70 0 70 C0 46.9 0 23.8 0 0 Z " fill="#000000" transform="translate(959,68)"/>
<path d="M0 0 C1.31806641 -0.00315216 2.63613281 -0.00630432 3.99414062 -0.009552 C5.44401075 -0.00776222 6.89388058 -0.00571127 8.34375 -0.00341797 C9.81966162 -0.00409104 11.29557313 -0.0050611 12.77148438 -0.00631714 C15.86850029 -0.00779395 18.96548742 -0.00564011 22.0625 -0.00097656 C26.04083549 0.00472073 30.01910352 0.00144163 33.99743652 -0.00454903 C37.04622917 -0.0081551 40.09500571 -0.00701584 43.14379883 -0.00442123 C44.61108406 -0.00375209 46.07837074 -0.00457994 47.5456543 -0.00690079 C49.59293593 -0.00942804 51.64022266 -0.00489607 53.6875 0 C55.43836914 0.00119339 55.43836914 0.00119339 57.22460938 0.00241089 C59.84375 0.12939453 59.84375 0.12939453 60.84375 1.12939453 C60.94184273 3.33421936 60.96746119 5.5422628 60.96679783 7.74926853 C60.96795167 8.45278583 60.96910552 9.15630313 60.97029433 9.88113913 C60.97296775 12.26832172 60.96843292 14.65543855 60.96400452 17.0426178 C60.96444007 18.75939797 60.96531468 20.47617807 60.96659368 22.19295782 C60.96884175 26.93376158 60.96481312 31.67454297 60.95981562 36.41534388 C60.95551575 41.5189868 60.95695721 46.62262836 60.9577179 51.72627258 C60.95824343 60.57639428 60.9550936 69.42650864 60.94948006 78.27662849 C60.94136898 91.0725743 60.93875024 103.86851654 60.93749207 116.66446465 C60.93530093 137.42271477 60.92863917 158.18096098 60.91918945 178.93920898 C60.91001693 199.10945618 60.90293532 219.27970231 60.89868164 239.44995117 C60.89841892 240.69227861 60.89815619 241.93460605 60.89788551 243.21457977 C60.89658052 249.44668277 60.8953168 255.67878578 60.89407361 261.91088879 C60.88369907 313.65039341 60.86607907 365.38989378 60.84375 417.12939453 C61.50375 417.12939453 62.16375 417.12939453 62.84375 417.12939453 C62.84375 418.44939453 62.84375 419.76939453 62.84375 421.12939453 C62.18375 421.12939453 61.52375 421.12939453 60.84375 421.12939453 C60.84375 603.94939453 60.84375 786.76939453 60.84375 975.12939453 C186.57375 975.12939453 312.30375 975.12939453 441.84375 975.12939453 C441.84375 998.88939453 441.84375 1022.64939453 441.84375 1047.12939453 C421.38375 1047.12939453 400.92375 1047.12939453 379.84375 1047.12939453 C379.84375 1048.11939453 379.84375 1049.10939453 379.84375 1050.12939453 C378.85375 1050.12939453 377.86375 1050.12939453 376.84375 1050.12939453 C376.84375 1072.23939453 376.84375 1094.34939453 376.84375 1117.12939453 C328.06883625 1117.15197781 279.29392375 1117.16989164 230.51900581 1117.18045986 C224.76714644 1117.18171064 219.01528709 1117.18300496 213.26342773 1117.18432617 C212.11828459 1117.18458848 210.97314144 1117.18485079 209.79329699 1117.18512105 C191.2253402 1117.18947823 172.65738649 1117.19736604 154.08943153 1117.20654733 C135.05210799 1117.21588254 116.01478606 1117.22144986 96.97746032 1117.22348303 C85.22034063 1117.22485853 73.46322964 1117.22921059 61.70611262 1117.237311 C53.65548121 1117.24257683 45.60485434 1117.2441992 37.55422134 1117.24289591 C32.90205433 1117.24225227 28.24990259 1117.24327291 23.59773827 1117.24860001 C19.34602277 1117.2534333 15.09433294 1117.25373365 10.84261631 1117.25029343 C9.29752074 1117.24986766 7.75242362 1117.25116399 6.20733113 1117.25427771 C4.12093879 1117.25824068 2.03464138 1117.25615858 -0.05174923 1117.25244236 C-1.79637429 1117.25301194 -1.79637429 1117.25301194 -3.57624429 1117.25359303 C-6.15625 1117.12939453 -6.15625 1117.12939453 -7.15625 1116.12939453 C-7.25050595 1113.98195904 -7.27367648 1111.83138427 -7.26977539 1109.68188477 C-7.26992142 1109.00874237 -7.27006744 1108.33559998 -7.2702179 1107.64205933 C-7.26951878 1105.40733669 -7.26172652 1103.17269644 -7.25390625 1100.93798828 C-7.25204206 1099.39242091 -7.25061816 1097.84685296 -7.24961853 1096.30128479 C-7.2457934 1092.22582377 -7.23596317 1088.15039816 -7.22491455 1084.07495117 C-7.21290566 1079.18911725 -7.20829817 1074.30327151 -7.20246124 1069.41742706 C-7.1927514 1061.98805822 -7.17359484 1054.55876716 -7.15625 1047.12939453 C-28.27625 1047.12939453 -49.39625 1047.12939453 -71.15625 1047.12939453 C-71.15625 1024.02939453 -71.15625 1000.92939453 -71.15625 977.12939453 C-91.28625 977.45939453 -111.41625 977.78939453 -132.15625 978.12939453 C-132.15625 701.58939453 -132.15625 425.04939453 -132.15625 140.12939453 C-112.02625 140.12939453 -91.89625 140.12939453 -71.15625 140.12939453 C-71.15625 117.02939453 -71.15625 93.92939453 -71.15625 70.12939453 C-50.03625 70.12939453 -28.91625 70.12939453 -7.15625 70.12939453 C-7.16785156 65.16005859 -7.17945313 60.19072266 -7.19140625 55.07080078 C-7.19651314 51.93082552 -7.20132692 48.79085536 -7.20507812 45.65087891 C-7.21106606 40.66218 -7.21816503 35.67349936 -7.23168945 30.68481445 C-7.24252008 26.66481767 -7.24852721 22.64484048 -7.25112724 18.62483025 C-7.25298118 17.08776478 -7.25660119 15.55070044 -7.26198006 14.01364326 C-7.26919284 11.86803966 -7.27024084 9.72251798 -7.26977539 7.5769043 C-7.271996 6.35334732 -7.27421661 5.12979034 -7.27650452 3.86915588 C-7.05530192 -1.17050787 -4.45594143 0.00303716 0 0 Z " fill="#000000" transform="translate(332.15625,67.87060546875)"/>
<path d="M0 0 C0.66178253 -0.00175232 1.32356506 -0.00350464 2.00540161 -0.00531006 C4.20284615 -0.00972764 6.40021083 -0.00679094 8.59765625 -0.00341797 C10.11840836 -0.00409104 11.63916037 -0.00506108 13.15991211 -0.00631714 C16.35108461 -0.00779398 19.54222917 -0.00563999 22.73339844 -0.00097656 C26.83280155 0.00472073 30.93213921 0.00144165 35.03153992 -0.00454903 C38.17297869 -0.008155 41.31440183 -0.00701589 44.45584106 -0.00442123 C45.96778369 -0.00375207 47.47972771 -0.00458003 48.9916687 -0.00690079 C51.10125512 -0.00942792 53.21073412 -0.00558591 55.3203125 0 C56.52308838 0.00079559 57.72586426 0.00159119 58.96508789 0.00241089 C61.66015625 0.12939453 61.66015625 0.12939453 62.66015625 1.12939453 C62.75858724 3.25496581 62.7846273 5.38388448 62.78435475 7.51173359 C62.78627188 8.53029232 62.78627188 8.53029232 62.78822773 9.56942799 C62.79132575 11.87797358 62.7872062 14.18645261 62.78320408 16.49499607 C62.78394279 18.16065951 62.78512038 19.8263228 62.78670058 21.49198565 C62.78979066 26.11210718 62.78657716 30.73220696 62.78242244 35.35232689 C62.77900605 40.36234792 62.78135562 45.3723666 62.78299993 50.38238806 C62.78507992 59.17726191 62.78341929 67.97212903 62.77936172 76.76700211 C62.77334489 89.84480871 62.77302422 102.92261103 62.77390371 116.00041877 C62.77521994 137.99572878 62.77187466 159.99103624 62.76588631 181.98634529 C62.75996822 203.77553382 62.7561121 225.56472112 62.75503349 247.35391045 C62.75498188 248.36812812 62.75498188 248.36812812 62.75492921 249.40283503 C62.75461602 255.57818187 62.75432833 261.7535287 62.75407124 267.92887554 C62.75343176 283.28158832 62.75247239 298.63430107 62.75129604 313.98701382 C62.75121607 315.03582381 62.75121607 315.03582381 62.75113448 316.10582188 C62.74851158 350.13622221 62.74220346 384.16662173 62.7355957 418.19702148 C62.73330409 430.00954182 62.73102874 441.82206216 62.7288208 453.63458252 C62.72868385 454.36717453 62.7285469 455.09976653 62.7284058 455.8545583 C62.72206427 489.89707159 62.71833696 523.93958503 62.71528601 557.98209876 C62.71508794 560.19157373 62.71488875 562.40104869 62.71468933 564.61052365 C62.71336957 579.25256236 62.71209492 593.89460106 62.71085047 608.53663977 C62.70837382 637.67182965 62.70563214 666.80701951 62.70270842 695.94220934 C62.70256918 697.32977122 62.70243013 698.71733309 62.70229126 700.10489496 C62.69304735 792.44639552 62.67708162 884.78789509 62.66015625 977.12939453 C42.20015625 977.12939453 21.74015625 977.12939453 0.66015625 977.12939453 C0.66015625 978.11939453 0.66015625 979.10939453 0.66015625 980.12939453 C0.00015625 980.12939453 -0.65984375 980.12939453 -1.33984375 980.12939453 C-1.33984375 1002.23939453 -1.33984375 1024.34939453 -1.33984375 1047.12939453 C-21.79984375 1047.12939453 -42.25984375 1047.12939453 -63.33984375 1047.12939453 C-63.33984375 1048.11939453 -63.33984375 1049.10939453 -63.33984375 1050.12939453 C-64.32984375 1050.12939453 -65.31984375 1050.12939453 -66.33984375 1050.12939453 C-66.33984375 1072.23939453 -66.33984375 1094.34939453 -66.33984375 1117.12939453 C-88.44984375 1117.12939453 -110.55984375 1117.12939453 -133.33984375 1117.12939453 C-133.33984375 794.71939453 -133.33984375 472.30939453 -133.33984375 140.12939453 C-102.64984375 139.63439453 -102.64984375 139.63439453 -71.33984375 139.12939453 C-71.33984375 117.67939453 -71.33984375 96.22939453 -71.33984375 74.12939453 C-70.34984375 73.79939453 -69.35984375 73.46939453 -68.33984375 73.12939453 C-68.33984375 72.13939453 -68.33984375 71.14939453 -68.33984375 70.12939453 C-48.20984375 70.12939453 -28.07984375 70.12939453 -7.33984375 70.12939453 C-7.35144531 65.16005859 -7.36304687 60.19072266 -7.375 55.07080078 C-7.38010689 51.93082552 -7.38492067 48.79085536 -7.38867188 45.65087891 C-7.39465981 40.66218 -7.40175878 35.67349936 -7.4152832 30.68481445 C-7.42611383 26.66481767 -7.43212096 22.64484048 -7.43472099 18.62483025 C-7.43657493 17.08776478 -7.44019494 15.55070044 -7.44557381 14.01364326 C-7.45278659 11.86803966 -7.45383459 9.72251798 -7.45336914 7.5769043 C-7.45558975 6.35334732 -7.45781036 5.12979034 -7.46009827 3.86915588 C-7.23629823 -1.22968544 -4.4943794 0.00297287 0 0 Z " fill="#000000" transform="translate(2989.33984375,67.87060546875)"/>
</svg>
